<?xml version="1.0" standalone="no"?>
<!DOCTYPE svg PUBLIC "-//W3C//DTD SVG 20010904//EN"
 "http://www.w3.org/TR/2001/REC-SVG-20010904/DTD/svg10.dtd">
<svg version="1.0" xmlns="http://www.w3.org/2000/svg"
 width="1080.000000pt" height="1080.000000pt" viewBox="0 0 1080.000000 1080.000000"
 preserveAspectRatio="xMidYMid meet">

<g transform="translate(0.000000,1080.000000) scale(0.100000,-0.100000)"
fill="#000000" stroke="none">
<path d="M2226 6365 c10 -8 24 -14 29 -14 6 0 1 6 -9 14 -11 8 -24 15 -30 15
-5 0 -1 -7 10 -15z"/>
<path d="M1956 5822 c-9 -27 1 -163 16 -210 5 -17 18 -37 28 -42 21 -11 249
-14 299 -4 18 4 30 12 28 18 -4 13 -117 15 -224 3 -92 -9 -89 -15 -127 188
-10 55 -14 65 -20 47z"/>
<path d="M3811 5745 c-1 -101 23 -175 56 -176 84 -2 638 0 883 4 216 4 313 9
333 18 15 7 27 15 27 18 0 7 -687 5 -1012 -3 -214 -5 -218 -5 -238 16 -23 25
-43 90 -36 116 2 9 1 35 -4 57 -6 33 -8 24 -9 -50z"/>
<path d="M6534 5736 c-4 -12 0 -42 12 -75 17 -50 23 -57 59 -69 22 -7 99 -16
170 -19 177 -7 187 -10 225 -85 16 -34 30 -68 30 -77 0 -9 7 -27 16 -40 16
-22 22 -23 87 -18 73 6 107 25 107 58 0 11 9 24 20 31 11 7 20 21 20 30 0 11
8 18 20 18 12 0 24 10 30 24 5 13 14 27 19 31 6 3 11 15 11 25 0 10 8 21 19
25 10 3 26 14 36 25 21 23 11 26 -45 10 -19 -5 -191 -11 -382 -14 -345 -5
-347 -5 -380 17 -23 16 -38 37 -50 72 -13 40 -18 46 -24 31z"/>
<path d="M3812 5200 c0 -14 2 -19 5 -12 2 6 2 18 0 25 -3 6 -5 1 -5 -13z"/>
<path d="M6547 5150 c-8 -63 5 -129 28 -147 27 -19 139 -26 310 -20 172 7 272
25 312 57 31 24 18 25 -62 4 -64 -17 -417 -32 -477 -20 -18 3 -46 17 -63 30
-26 21 -31 32 -35 88 l-5 63 -8 -55z"/>
<path d="M8850 5134 c-20 -11 -21 -14 -7 -14 10 0 31 -7 47 -15 l29 -15 -11
30 c-11 33 -20 35 -58 14z"/>
<path d="M3805 5023 c2 -49 7 -105 11 -125 7 -45 44 -78 85 -78 33 0 39 16 10
25 -46 14 -90 121 -91 218 0 26 -4 47 -9 47 -6 0 -8 -36 -6 -87z"/>
<path d="M1960 4968 c0 -82 23 -129 70 -145 79 -27 268 -10 305 28 20 21 20
21 0 15 -11 -3 -78 -7 -148 -8 l-129 -3 -24 28 c-13 16 -32 55 -42 88 -9 32
-20 59 -24 59 -5 0 -8 -28 -8 -62z"/>
<path d="M4585 4860 c-467 -7 -635 -15 -635 -30 0 -17 63 -20 445 -20 483 1
650 10 679 40 15 14 16 19 6 18 -8 -1 -231 -5 -495 -8z"/>
<path d="M3817 4486 c-4 -10 -7 -41 -7 -69 0 -29 -7 -108 -15 -177 -19 -163
-20 -159 8 -132 21 21 22 33 27 190 5 166 1 225 -13 188z"/>
<path d="M1971 4340 c-2 -128 75 -339 191 -529 50 -82 150 -197 242 -279 106
-95 317 -193 474 -222 86 -15 4922 -16 5017 -1 102 17 210 48 283 82 35 16 66
29 68 29 3 0 17 8 32 18 15 10 50 34 77 52 62 42 119 90 106 90 -5 0 -16 -6
-23 -13 -39 -38 -174 -117 -273 -158 -36 -15 -168 -48 -240 -60 -67 -10 -517
-13 -635 -4 -45 4 -489 4 -915 1 -403 -2 -1088 7 -1169 16 -74 9 -124 9 -200
0 -128 -15 -260 -16 -1255 -14 l-814 2 -95 26 c-107 28 -192 62 -192 76 0 5
-4 7 -9 4 -4 -3 -16 3 -26 14 -10 11 -24 20 -31 20 -15 0 -138 82 -174 116
-240 226 -299 331 -424 749 l-15 50 0 -65z"/>
<path d="M2570 3878 c14 -13 25 -30 25 -38 0 -9 11 -16 29 -18 18 -2 26 0 21
7 -3 6 -13 11 -22 11 -9 0 -14 3 -10 6 7 7 -24 39 -49 48 -15 5 -14 2 6 -16z"/>
<path d="M5566 3712 c23 -17 58 -31 84 -34 38 -5 41 -4 20 5 -14 5 -48 21 -77
34 -68 30 -74 29 -27 -5z"/>
<path d="M2778 3719 c-10 -5 -18 -18 -18 -27 0 -15 2 -15 10 -2 7 11 10 7 11
-20 1 -19 1 -38 0 -42 0 -5 4 -8 9 -8 6 0 10 4 10 10 0 6 18 7 46 3 41 -5 49
-3 65 18 l18 24 -61 27 c-68 31 -67 31 -90 17z"/>
<path d="M2948 3673 c7 -3 16 -2 19 1 4 3 -2 6 -13 5 -11 0 -14 -3 -6 -6z"/>
<path d="M6078 3608 c8 -8 20 -8 44 -1 l33 11 -44 1 c-34 1 -42 -2 -33 -11z"/>
</g>
</svg>
